<svg aria-hidden="true" style="position:absolute;width:0;height:0;overflow:hidden"
  xmlns="http://www.w3.org/2000/svg">
  <symbol id="ukraine-logo" viewBox="0 0 64 46">
    <g clip-path="url(#a)">
      <path fill="#fff" stroke="#fff" stroke-width=".5"
        d="M19.497 22.682c.068.568.57.854.916 1.021l.055.03c.18.095.31.165.445.294.05.049.09.093.136.145.035.039.073.082.122.133.1.105.222.22.38.303.344.18.677.088.937-.077l.006.006.008.008a.79.79 0 0 1 .106.14l.02.03c.031.05.073.114.118.17.198.27.486.436.827.463H23.631l.014-.002.017.075c.037.159.068.292.085.44v.002c.021.17.027.337.03.51l.001.1c.002.139.004.283.013.425.002.318.116.63.407.857.105.086.228.146.337.193.052.023.106.044.155.064l.01.005c.055.021.104.041.152.062.201.09.27.159.287.243l.002.008.024.109c.05.225.105.475.319.728l.001.002c.071.081.153.166.227.243l.117.124c.103.111.187.217.25.34l.002.003c.238.444.379.938.522 1.44.05.174.1.349.153.523l.003.007.005.015-.002-.001-.007-.003c-.17-.07-.34-.127-.566-.127-.13 0-.23.037-.31.078-.034.017-.067.036-.092.05-.003.003-.006.004-.01.006l-.024.014a.632.632 0 0 0-.14-.098.669.669 0 0 0-.559-.036 1.03 1.03 0 0 0-.133.058l-.05.025-.055.028c-.05.024-.07.027-.072.028h-.002c-.012-.001-.018-.004-.019-.005a.007.007 0 0 1-.002-.003c-.003-.003-.012-.02-.007-.057v-.003a.424.424 0 0 0-.069-.291.46.46 0 0 0-.2-.162.553.553 0 0 0-.44.002 2.294 2.294 0 0 0-.151.072l-.063-.036-.009.076a1.914 1.914 0 0 0-.87 1.02c-.107.26-.13.536-.105.8.007.087.024.17.037.237v.001c.015.073.026.126.03.175.007.081-.005.115-.049.154-.059.05-.119.092-.186.14l-.075.055c-.095.07-.202.152-.298.258l-.007.008c-.21.254-.312.53-.402.79l-.002.008c-.021.067-.041.138-.061.21-.054.192-.11.394-.201.567a.562.562 0 0 1-.18.22c-.049.03-.114.049-.22.022l-.004-.001a.516.516 0 0 0-.644.497.903.903 0 0 0 .028.258l-.098.075.146.058a.78.78 0 0 0 .093.15c.11.14.255.232.39.301.101.052.213.098.313.139l.09.037c.126.053.224.1.298.155.259.21.546.327.85.33.305.004.6-.105.877-.299.12-.08.23-.172.327-.256l.04-.034c.085-.075.162-.142.243-.201.178-.132.34-.202.543-.18l.004.001c.388.036.736.32.783.65v.004a.468.468 0 0 0 .817.237.433.433 0 0 0 .079-.367c-.165-.997-1.28-1.654-2.26-1.38-.326.091-.57.298-.768.465l-.006.005c-.213.18-.375.314-.572.372l-.006.002c-.082.026-.13.014-.2-.03a1.598 1.598 0 0 1-.13-.093l-.019-.014a1.914 1.914 0 0 0-.238-.161c.154-.136.28-.3.368-.467.122-.218.198-.475.264-.698.021-.072.041-.14.062-.201.09-.28.194-.493.388-.639l.069-.05c.17-.125.388-.284.515-.528.19-.343.105-.676.043-.917l-.018-.075a.928.928 0 0 1 .163-.735 1.092 1.092 0 0 0 1.167.22v.001l.011-.005c.021-.01.042-.022.058-.031l.036.033a.439.439 0 0 0 .081.057c.124.07.334.157.547.086a.656.656 0 0 0 .232-.112.414.414 0 0 1 .08-.047l.014-.006.014-.007c.015-.008.03-.015.086.006.032.012.068.03.116.054l.017.009c.042.021.093.047.146.07l.009.004c.265.102.641.142.953-.039l.003-.001a.684.684 0 0 0 .342-.538c.02-.19-.027-.38-.074-.529-.043-.14-.086-.285-.129-.432-.177-.604-.367-1.251-.646-1.825a2.761 2.761 0 0 0-.58-.797c-.03-.034-.06-.065-.086-.093l-.002-.001-.079-.086a.517.517 0 0 1-.094-.144c-.02-.06-.029-.119-.04-.202a1.086 1.086 0 0 0-.106-.388l-.006-.01a1.296 1.296 0 0 0-.601-.532 2.434 2.434 0 0 0-.278-.115 3.911 3.911 0 0 1-.08-.03.567.567 0 0 1-.214-.121l-.006-.006-.006-.006a.051.051 0 0 1-.014-.018.097.097 0 0 1-.005-.031.713.713 0 0 1 0-.086l.002-.02c.002-.033.004-.075.004-.118V26.098c-.023-.373-.07-.806-.19-1.201l-.001-.005a.816.816 0 0 0-.38-.487 1.132 1.132 0 0 0-.552-.117c-.06 0-.101-.021-.167-.105a1.907 1.907 0 0 1-.092-.13l-.024-.037a1.661 1.661 0 0 0-.158-.206c-.256-.295-.725-.557-1.203-.322a.456.456 0 0 0-.114.066 1.757 1.757 0 0 0-.415-.298 3.485 3.485 0 0 0-.444-.177l-.11-.037a6.39 6.39 0 0 1-.313-.11c-.265-.104-.457-.223-.571-.419l-.025-.042-.039-.03a.482.482 0 0 0-.32-.108.314.314 0 0 0-.21.096.284.284 0 0 0-.07.253Zm7.506 9.277h-.001.001Z" />
      <path fill="#fff" stroke="#fff" stroke-width=".5"
        d="m32.279 31.185.02-.25a4.66 4.66 0 0 0-2.364.433c-.297.138-.64.35-.88.635a1.303 1.303 0 0 0-.26.464l-.198-.017.167.16c-.024.162-.01.335.057.517l.003.01a.518.518 0 0 0 .17.223.575.575 0 0 0 .238.099l.016.003.016.001c.24.014.394.211.372.387v.004a.317.317 0 0 1-.152.242.884.884 0 0 1-.371.121h-.002c-.123.017-.25.023-.39.03l-.07.004c-.161.008-.338.019-.514.055a1.714 1.714 0 0 0-.466.15l-.012.006c-.037.02-.08.048-.114.07l-.028.018a.725.725 0 0 1-.088.05.499.499 0 0 0-.834.095l-.006.013-.005.013-.005.012h-.239l.15.218a7.826 7.826 0 0 1-.174.383 23.86 23.86 0 0 1-.099-.102l-.02-.174-.1.049-.002-.002a.502.502 0 0 0-.52-.097.453.453 0 0 0-.305.473v.003l-.116.056.133.128c.072.745.2 1.47.344 2.189.045.242.274.303.412.285.15-.021.33-.145.33-.375 0-.395-.011-.79-.034-1.186a.538.538 0 0 0 .125.006.453.453 0 0 0 .373-.237l.003-.005.093-.18.154-.03-.09-.095c.085-.164.168-.33.248-.496.05.008.1.013.154.013.212 0 .376-.08.5-.153.041-.023.076-.045.107-.064.073-.044.125-.076.19-.099.198-.066.406-.072.659-.079l.062-.002c.269-.008.584-.024.892-.166l.008-.004c.52-.263.822-.84.74-1.403l-.002-.008c-.082-.456-.397-.783-.783-.949a.796.796 0 0 1 .183-.184c.207-.16.49-.283.685-.357a4.03 4.03 0 0 1 1.62-.223.447.447 0 0 0 .362-.131.478.478 0 0 0-.325-.799l-.018.249Zm0 0c.29.021.29.453 0 .431a4.28 4.28 0 0 0-1.724.238l-1.504.635c.146-.401.595-.712.99-.894a4.408 4.408 0 0 1 2.238-.41Z" />
      <path fill="#fff" stroke="#fff" stroke-width=".5"
        d="M31.902 31.68a.388.388 0 0 0 .237.12l.002.016a.854.854 0 0 0 .047.209l-.143.138.228.03a.989.989 0 0 0 .388.317l.016.008.017.005c.014.005.065.023.126.047a.461.461 0 0 0-.084.353.49.49 0 0 0 .264.355l.013.086.127-.039a.565.565 0 0 0 .053.008c.333.038.646.172.982.339l.204.103c.27.139.561.287.864.388h.002c.481.155.962.153 1.406.142.036 0 .071-.002.107-.003.414-.01.795-.02 1.174.062h.001c.15.032.306.076.44.129l-.022.015c-.13.063-.261.138-.377.204l-.132.074-.01.005c-.685.419-1.35.927-1.924 1.503l-.08.076c-.092.085-.2.188-.296.295a1.385 1.385 0 0 0-.317.539v.004a.81.81 0 0 0 .05.556c.089.18.255.323.49.358h.003c.219.03.43-.031.596-.085l.104-.035c.133-.045.24-.08.35-.095h.003c.126-.018.21.01.24.04a.96.96 0 0 1 .113.145l.005.007c.042.06.099.143.173.215l.01.01.01.008c.124.095.291.203.511.203.079 0 .15-.011.203-.02l.009-.001c.05-.008.077-.013.1-.014l.004.01.006.009c.075.13.12.3.14.498.02.196.016.401.005.59a6.02 6.02 0 0 1-.049.433l-.013.098a4.228 4.228 0 0 0-.047.587c.003.411.115.835.54 1.167.72.564 1.693.39 2.347-.03.33-.206.602-.476.85-.722l.175-.172.006-.006c.186-.192.37-.36.559-.53.127-.117.257-.235.391-.364.18-.153.158-.383.075-.52a.42.42 0 0 0-.501-.184c-.423.137-.746.4-1.024.674-.112.11-.22.226-.324.337l-.076.08c-.13.138-.254.267-.385.383a2.047 2.047 0 0 1-.825.44c-.295.068-.541.02-.719-.195v-.001c-.082-.099-.117-.23-.117-.41 0-.134.018-.266.037-.409l.023-.173c.069-.402.094-.796.022-1.218-.044-.313-.117-.78-.425-1.105l-.007-.007a.94.94 0 0 0-.492-.24l-.013-.002a.87.87 0 0 0-.21.007l-.07.01-.01.002a1.671 1.671 0 0 1-.062.008.213.213 0 0 1-.056.002 3.232 3.232 0 0 1-.1-.132l-.001-.002a3.254 3.254 0 0 0-.131-.173l-.01-.01-.01-.01a1.231 1.231 0 0 0-.532-.277l-.007-.002-.008-.002a1.67 1.67 0 0 0-.502-.022c.192-.191.392-.38.591-.557.586-.48 1.24-.88 1.944-1.24l.002-.002c.131-.069.313-.182.43-.34a.568.568 0 0 0 .116-.32.555.555 0 0 0-.13-.364c-.141-.18-.363-.303-.563-.388a4.286 4.286 0 0 0-.597-.194 5.256 5.256 0 0 0-1.454-.203c-.13 0-.258.005-.38.011l-.024.001c-.116.006-.227.01-.337.012a2.145 2.145 0 0 1-.663-.078l-.004-.001c-.32-.092-.61-.239-.922-.396a31.756 31.756 0 0 0-.194-.098 5.975 5.975 0 0 0-.53-.238.774.774 0 0 0 .002-.102c.204.027.409.05.61.071.258.025.556-.013.774-.17a.648.648 0 0 0 .253-.35.791.791 0 0 0-.027-.48c-.21-.605-.869-.815-1.378-.815-.523 0-1.053.076-1.56.15-.165.024-.327.047-.486.068l-.048.006-.041.023c-.195.107-.251.332-.238.486a.45.45 0 0 0 .117.272Zm2.754.142v-.002a.02.02 0 0 1 0 .002Z" />
      <path fill="#fff" stroke="#fff" stroke-width=".5"
        d="m43.056 40.173-.02.012a.385.385 0 0 1-.47-.064c-.131-.135-.138-.328-.061-.495l.009-.02.012-.017c.24-.346.568-.432.86-.463.08-.008.176-.013.263-.018l.143-.009c.127-.01.236-.025.335-.057.199-.073.356-.233.552-.456l.04-.046c.175-.2.389-.442.676-.586l.002-.002a1.762 1.762 0 0 1-.391-.21 3.39 3.39 0 0 1-.653-.635 5.877 5.877 0 0 1-.958-1.641 4.099 4.099 0 0 1-.284-1.051l-.014-.086c-.042-.25-.099-.587-.027-.89.085-.402.388-.592.62-.737l.07-.044.008-.005c.142-.084.285-.174.43-.266h.002c.143-.091.29-.184.437-.271.302-.194.604-.383.905-.57v-.001c.302-.189.602-.376.902-.57.049-.031.098-.066.15-.102.231-.16.496-.344.806-.444l.01-.003.017-.005c.141-.039.334-.092.537-.069.11.002.21.022.286.037.088.018.14.028.19.028.086 0 .183-.033.32-.096l.083-.04c.11-.052.243-.116.376-.156l.01-.003.01-.002c.333-.069.574-.012.815.044l.087.02c.039.005.074-.005.13-.05.049-.041.088-.086.138-.145a5.08 5.08 0 0 1 .083-.094l.006-.006.006-.006.012-.012c.149-.143.334-.322.578-.426l.008-.004.009-.003a2.35 2.35 0 0 1 .473-.096l.057-.007a1.32 1.32 0 0 0 .401-.1c.11-.058.218-.127.336-.203l.004-.002c.115-.074.24-.155.373-.224v-.001c.33-.17.666-.247 1.029-.222h.004a3.888 3.888 0 0 1 .222.028c.075.009.148.016.217.017.146.003.223-.025.261-.062.01-.009.025-.03.036-.1.005-.034.008-.072.011-.119v-.013c.004-.041.007-.09.013-.138v-.004l.068-.453v-.008l.002-.007c.07-.333.163-.675.307-.999M43.057 40.173l12.097-13.347M43.056 40.173l.019-.016c.05-.043.111-.063.21-.063.052 0 .109.005.176.013l.047.006c.052.007.11.014.166.018.275.022.596.028.901-.105m-1.519.147 1.52-.147m10.35-13.3v-.002l.228.102m-.229-.1.23.1m-.23-.1c.122-.283.31-.584.658-.751l.01-.006.011-.004c.082-.03.16-.053.23-.074l.023-.007c.063-.018.117-.034.169-.052a.709.709 0 0 0 .275-.158l.01-.01v.001c.06-.052.113-.1.168-.151l.156-.141c.115-.102.245-.209.387-.293.144-.084.31-.15.496-.164.189-.013.382.03.577.137l.008.005a.415.415 0 0 1 .193.25.412.412 0 0 1-.029.282.45.45 0 0 1-.457.254l-.01-.001c-.104-.017-.208.019-.336.118a2.312 2.312 0 0 0-.25.234l-.14.142-.008.007c-.305.27-.587.39-.94.504-.119.038-.197.119-.262.246a2.17 2.17 0 0 0-.14.43l-.014.055-.002.006a4.86 4.86 0 0 0-.144.846l-.027.238-.001.008c-.071.45-.33.718-.666.854-.314.127-.684.134-1.007.112m1.291-2.817c.112-.26.269-.497.537-.626.081-.03.16-.053.237-.076.2-.06.385-.114.547-.27.06-.05.119-.106.18-.161.373-.344.78-.718 1.32-.421.178.108.044.345-.135.324-.34-.055-.6.213-.821.441-.041.042-.08.083-.119.12-.269.237-.515.345-.85.453-.382.122-.482.516-.568.85l-.014.056c-.09.31-.122.605-.154.897-.008.075-.016.15-.026.225-.111.713-.783.799-1.41.756m-.015.25h.002l.013-.25m-.015.25a1.307 1.307 0 0 0-.435.039 1.76 1.76 0 0 0-.404.183m.84-.223h-.003l.017-.25m0 0c-.403-.02-.649.066-.984.26m-6.94 8.136c-.604.043-1.074-.432-1.41-.842-.402-.475-.693-1.014-.917-1.575a3.848 3.848 0 0 1-.269-.993l-.015-.092c-.042-.257-.09-.542-.03-.793.062-.296.273-.43.514-.582l.069-.044c.145-.086.29-.178.436-.27.145-.091.291-.183.437-.27.302-.194.604-.382.906-.571.302-.189.604-.378.907-.572l.167-.114c.23-.16.457-.317.728-.404.157-.043.313-.086.47-.065.092 0 .179.018.263.034.078.016.154.031.23.031.179 0 .35-.082.523-.166.108-.051.216-.103.327-.136.276-.057.466-.013.706.042l.1.023c.232.037.38-.135.517-.294.022-.025.043-.05.065-.073.156-.151.313-.302.514-.389.138-.047.28-.065.422-.084.182-.023.365-.047.54-.131.124-.065.241-.14.359-.216.117-.076.235-.151.358-.216.291-.151.582-.216.895-.194.043.003.092.01.143.017.246.032.568.074.753-.104.104-.1.114-.252.123-.395.003-.042.006-.084.011-.123l-8.841 9.56Zm0 0c.292-.022.516-.173.695-.367m-.694.367.694-.367m0 0 .027-.037c.069-.091.169-.225.286-.244.1-.016.138.065.18.151.013.03.027.06.044.087m-.537.043.537-.043m0 0c.112.172.313.302.537.215.083-.031.153-.087.22-.14l.071-.054m-.828-.021.828.021m0 0c.134-.13.269-.216.425-.28m-.425.28.674-.34m-.249.06c.083-.027.166-.045.249-.06m-.249.06.077.238.01-.003m-.087-.235.096.23-.01.005m.163-.296c-.065.09-.113.19-.147.291m.147-.29-.147.29m-.016.005.016-.005m-.016.005c-.123.052-.228.12-.337.225l-.013.013-.014.01a1.826 1.826 0 0 0-.06.045l-.004.003a2.892 2.892 0 0 1-.072.056.91.91 0 0 1-.212.12c-.38.147-.692-.088-.837-.312l-.002-.004a.767.767 0 0 1-.033-.059m1.6-.102-1.654-.007v.001m1.654.006c.093-.028.19-.045.3-.063l.001-.004-.301.067Zm-1.6.102a.763.763 0 0 1 .021-.024.278.278 0 0 1 .05-.043s-.003.002-.01.003a.113.113 0 0 1-.036 0 .142.142 0 0 1-.047-.018.11.11 0 0 1-.032-.026m.054.108-.057.073-.038.05-.006.009-.008.007c-.082.09-.176.175-.284.246m.393-.385a1.564 1.564 0 0 1-.024-.05l-.002-.003a.577.577 0 0 0-.027-.054m0 0-.34.492m0 0a1.211 1.211 0 0 0-.08-.014l.08.014Zm0 0a1.343 1.343 0 0 1-.086.053l-.037.18m.123-.233c.163.035.314.1.433.158l.014.007.013.008c.083.053.156.118.214.169l.005.004c.061.053.107.093.153.124m0 0-.002-.001-.125.216m.127-.215.008.005-.135.21m.127-.215.835.064c-.223.087-.738.28-.962.151m0 0c-.067-.043-.129-.097-.19-.15a1.65 1.65 0 0 0-.19-.152 1.556 1.556 0 0 0-.448-.15m0 0a1.493 1.493 0 0 0-.918.107m.918-.108.023-.171-.94.28m0 0c-.243.12-.425.328-.606.534-.205.232-.408.463-.693.566-.18.06-.372.07-.56.08l1.858-1.18Zm-.933 1.848c.281-.117.494-.308.675-.487l.135-.137c.129-.132.244-.25.379-.352.186-.124.38-.176.557-.133l.008.001c.09.019.164.07.278.168l.032.027c.1.085.239.204.415.27l.004.001c.176.062.354.058.505.04.096-.012.204-.034.294-.051l.11-.022.008-.001.008-.002c.283-.068.562-.163.82-.338l.007-.004c.18-.13.406-.313.525-.568.078-.152.1-.313.115-.424a3.27 3.27 0 0 1 .006-.046c.018-.123.038-.192.092-.255l.006-.008a2.72 2.72 0 0 1 .04-.05c.052-.065.122-.15.17-.237a.678.678 0 0 0 .085-.474.644.644 0 0 0-.304-.43 1.006 1.006 0 0 0-.425-.139 1.847 1.847 0 0 0-.895.076 2.56 2.56 0 0 0-.42.176 1.486 1.486 0 0 0-.168.106.682.682 0 0 0-.117-.112c-.296-.247-.72-.233-1.015-.065-.163.087-.276.236-.35.334l-.021.03c-.09.117-.138.161-.189.177l-.01.004c-.044.016-.119.013-.235-.053a1.332 1.332 0 0 1-.3-.249l-.006-.006a4.457 4.457 0 0 1-.974-1.511l-.001-.003a5.702 5.702 0 0 1-.265-.96c-.022-.106-.045-.216-.057-.335a.842.842 0 0 1-.001-.207c.007-.045.018-.06.018-.06.089-.085.21-.164.359-.249l.135-.075c.106-.059.219-.121.316-.184.158-.098.31-.195.46-.292.152-.097.301-.193.455-.289h.001l-.132-.213m-1.133 7.61 3.388-8.57c.05.004.097.01.153.017l.065.008c.082.01.176.02.28.02.292 0 .563-.123.772-.218l.085-.038m-3.61 1.171c.232-.14.456-.29.68-.44.363-.241.724-.482 1.111-.682m-1.79 1.122c-.157.097-.308.194-.46.291-.15.097-.302.195-.458.292l.918-.583Zm1.79-1.122.109.225.003-.001.003-.002-.115-.222Zm0 0c.246-.119.44-.095.653-.068.097.012.198.025.31.025.232 0 .448-.097.662-.194l.099-.044m0 0 .09.234.005-.002m-.095-.232.056-.022c.1-.04.212-.086.324-.086.1 0 .199.026.293.051.054.014.106.028.155.036.246.043.47-.043.671-.194.09-.065.163-.146.235-.227.073-.081.146-.162.235-.227.166-.145.363-.173.57-.202.1-.014.201-.029.303-.057.282-.077.51-.225.748-.38l.08-.051m-3.67 1.36.1.228-.005.003m0 0 3.706-1.378m0 0-.005.003-.125-.216m.13.213.005-.003-.136-.21m-4.038 7.38c.063 0 .126.002.189.022a.597.597 0 0 0-.135.127.25.25 0 0 1-.054-.149Zm-1.246.086-.025.026-.018-.036-.008-.017.051.027Zm-.07-.075a1.81 1.81 0 0 0-.03-.056.257.257 0 0 1 .19-.014l.021.009h.003a.581.581 0 0 0-.108.13l-.006.005-.06-.063-.002-.002-.009-.009Zm.766-.356a1.93 1.93 0 0 0-.536.258l-2.572 2.29c.133-.136.268-.274.422-.39.224-.15.492-.237.761-.172.171.035.295.14.42.248.104.088.209.177.341.226.204.072.438.025.652-.018l.132-.025a2.21 2.21 0 0 0 .738-.302c.18-.13.358-.28.448-.475a1.02 1.02 0 0 0 .09-.343c.021-.15.042-.3.156-.434l.052-.065c.12-.147.233-.289.194-.496-.045-.237-.29-.345-.515-.367a1.598 1.598 0 0 0-.783.065Zm-.851.217a.434.434 0 0 0-.09-.087l.09.087Zm-2.238.064a4.708 4.708 0 0 1-1.03-1.597l1.03 1.597Z" />
      <path fill="#fff" stroke="#fff" stroke-width=".5"
        d="M60.858 21.119c.186-.012.42-.04.623-.137a.863.863 0 0 0 .258-.183l.134.032-.062-.12a.77.77 0 0 0 .126-.318.548.548 0 0 0-.042-.332.427.427 0 0 0-.315-.236c-.092-.02-.182-.039-.27-.06l-.07-.133c.096-.05.191-.11.278-.192.28-.225.487-.524.59-.873.07-.231.061-.438.037-.623a5.34 5.34 0 0 0-.033-.206c-.017-.098-.032-.186-.038-.294a.456.456 0 0 1 .026-.163c.014-.046.028-.083.044-.127l.04-.105c.06-.173.13-.428-.036-.693l-.003-.005c-.24-.363-.688-.402-1-.295a1.17 1.17 0 0 0-.253.113l-.007.005a.726.726 0 0 1-.157.073l-.01.003-.008.003a.146.146 0 0 1-.023.007.944.944 0 0 1-.082-.084l-.051-.062c-.154-.19-.346-.426-.651-.548a1.692 1.692 0 0 0-.471-.106 7.302 7.302 0 0 0-.153-.013 2.835 2.835 0 0 1-.232-.025l-.07-.012-.017-.002a.55.55 0 0 1-.054-.011.732.732 0 0 1-.028-.082c-.004-.01-.007-.023-.01-.037-.015-.052-.035-.124-.058-.18l-.006-.014-.007-.012c-.108-.193-.268-.323-.473-.352a.79.79 0 0 0-.517.126c-.022.011-.042.013-.083-.002-.05-.017-.1-.047-.175-.093a8.38 8.38 0 0 0-.05-.03c-.194-.117-.409-.21-.605-.293l-.002-.002a7.266 7.266 0 0 0-1.15-.443l-.02-.006c-.125-.04-.307-.1-.486-.112-.195-.014-.436.025-.608.239a.356.356 0 0 0-.05.076.655.655 0 0 0-.041.103 4.041 4.041 0 0 1-.116-.067l-.01-.005a2.075 2.075 0 0 0-.097-.056 3.956 3.956 0 0 1-.766-.641 2.714 2.714 0 0 1-.303-.455l-.014-.023a3.66 3.66 0 0 0-.343-.523c-.326-.424-.797-.462-1.195-.44l-.011.002c-.45.045-.9.16-1.327.342a4.717 4.717 0 0 0-.58.312l-.018.01a2.378 2.378 0 0 1-.108.05.45.45 0 0 0-.084-.147.491.491 0 0 0-.28-.16.566.566 0 0 0-.487.134l-.116-.032v.011a1.186 1.186 0 0 1-.14-.085l-.012-.009c-.192-.144-.427-.32-.721-.398l-.01-.002a1.016 1.016 0 0 0-.506.02c-.064.017-.126.038-.18.057l-.01.004c-.059.02-.109.037-.16.05a.657.657 0 0 1-.535-.094l-.005-.003a.635.635 0 0 1-.27-.417.688.688 0 0 1 .018-.267l.018-.075c.02-.087.047-.197.057-.302v-.001c.029-.318-.08-.591-.18-.815l-.042-.093c-.087-.195-.158-.353-.182-.53a.453.453 0 0 0-.237-.35.513.513 0 0 0-.363-.037c-.212.054-.455.26-.41.585v.002c.028.188.096.354.164.498.026.056.05.106.074.153.042.085.079.162.113.247l.004.009c.04.091.044.178.026.29-.01.057-.023.116-.04.186l-.001.008a2.885 2.885 0 0 0-.049.24l-.001.01v.008a1.614 1.614 0 0 0 1.03 1.611c.316.127.652.15.977.102.11-.016.214-.059.285-.088l.01-.004a.987.987 0 0 1 .157-.056c.066.005.12.04.233.113l.058.038c.224.158.517.323.824.369.097.014.198.017.3.003.111.089.24.15.367.181.246.06.47.012.658-.066.166-.068.319-.167.441-.246l.033-.022a2.983 2.983 0 0 1 1.225-.425c.07-.01.129-.017.19-.019a.297.297 0 0 1 .144.02l.012.007c.025.012.055.038.094.106.02.033.038.07.06.115l.012.026c.017.037.036.078.057.117l.005.01c.38.663.925 1.212 1.588 1.6.125.077.298.177.489.236.194.059.432.082.666-.03a.674.674 0 0 0 .319-.366l.027.01.09.039.002.001c.031.014.067.03.102.043l.006.002c.415.148.81.317 1.206.508.066.032.136.072.218.12l.009.004c.083.048.177.102.275.149.195.092.442.174.714.112l.01-.002.008-.003c.034.066.072.125.11.174l.005.006c.246.297.603.369.888.392h.002l.059.004c.29.021.456.033.592.164.038.037.074.08.115.132l.033.042c.032.04.068.087.103.129.102.12.239.252.448.316.252.088.46.046.634-.02.046-.017.093-.038.137-.057a1.417 1.417 0 0 0-.023.472l.001.01.025.15c.062.378.096.59-.107.841l-.002.004a.783.783 0 0 1-.394.26l-.009.003c-.05.019-.089.03-.132.042-.035.01-.072.02-.122.037a.946.946 0 0 0-.305.152.855.855 0 0 0-.342.556.713.713 0 0 0 .239.65l.009.008a.84.84 0 0 0 .087.061.973.973 0 0 0-.198.198c-.246.324-.273.703-.23 1.037l-.156.151.195.063.014.059v.003a.47.47 0 0 0 .352.34c.088.021.184.02.275-.008.003.035.004.076.004.134v.008c0 .063 0 .149.013.232l.003.024c.019.172.05.446.224.653.01.016.02.027.028.035l-.002.002-.01.01-.01.012c-.193.24-.25.546-.291.764l-.007.038-.002.011-.001.012c-.023.24-.044.448-.1.633-.039.102-.08.137-.117.156-.048.025-.127.042-.273.042l-.33-.002c-.554-.003-1.117-.006-1.694.068l-.023.003-.022.007a.528.528 0 0 0-.35.333.353.353 0 0 0 .038.296.365.365 0 0 0 .266.16c.462.066.899.088 1.354.088.087 0 .18.005.285.01l.034.003c.092.005.191.011.29.014.221.005.47-.005.703-.084l.006-.002c.45-.168.635-.506.723-.846.042-.164.064-.334.083-.486l.002-.017c.019-.147.035-.276.062-.392a.491.491 0 0 1 .069-.119c.026-.036.05-.066.08-.101l.061-.077c.1-.128.242-.324.224-.588v-.007l-.002-.008a.619.619 0 0 0-.131-.319 1 1 0 0 0-.175-.16l-.01-.008a.128.128 0 0 1-.047-.064.5.5 0 0 1-.015-.15v-.032c0-.297.002-.785-.416-1.077a.866.866 0 0 0-.252-.132l.002-.006v-.003a.21.21 0 0 1 .036-.065.065.065 0 0 1 .024-.018.73.73 0 0 1 .218-.036Zm0 0h-.004l-.015-.25m.019.25h.003l-.022-.25m0 0c-.246.022-.402.044-.492.28l1.086-.424c-.168.1-.392.132-.594.144Zm-.169-1.027.002-.001h-.002Z" />
      <path fill="#fff" stroke="#fff" stroke-width=".5"
        d="m45.472 9.887.005-.008.005-.009c.106-.205.173-.44.11-.71v-.007a.967.967 0 0 0-.18-.35.744.744 0 0 0-.217-.183l-.028-.019a.903.903 0 0 1-.003-.033l-.003-.036a.759.759 0 0 0-.22-.468c-.226-.217-.532-.267-.78-.241a1.722 1.722 0 0 0-.403.093l-.101.035c-.078.027-.148.052-.226.072-.036.008-.08.002-.18-.056l-.084-.053a3.843 3.843 0 0 0-.083-.052 1.187 1.187 0 0 0-.226-.112c-.312-.11-.642-.12-.956-.09a3.66 3.66 0 0 0-.198-1.401c.14-.064.275-.14.396-.232.29-.218.514-.537.5-.985v-.011c-.032-.392-.285-.644-.535-.814h-.002c-.274-.183-.456-.347-.585-.613l-.001-.003a6.462 6.462 0 0 1-.17-.383l-.013-.03a6.148 6.148 0 0 0-.208-.46c-.159-.306-.379-.615-.743-.81a1.4 1.4 0 0 0-.949-.139c-.115.024-.229.064-.335.121a1.26 1.26 0 0 0-.41-.122 1.898 1.898 0 0 0-.964.151c-.097.041-.193.09-.28.135l-.005.002a3.97 3.97 0 0 1-.257.124c-.164.07-.298.097-.426.07l-.005-.001a2.209 2.209 0 0 1-.349-.11l-.095-.034a1.653 1.653 0 0 0-.566-.12.952.952 0 0 0-.609.2c-.153.12-.257.278-.338.419a6.342 6.342 0 0 0-.096.175 3.157 3.157 0 0 1-.127.222.75.75 0 0 1-.232.248.786.786 0 0 1-.656.07 5.663 5.663 0 0 1-.214-.097h-.002a5.641 5.641 0 0 0-.233-.104 1.743 1.743 0 0 0-.567-.14h-.015c-.349 0-.693.12-.974.219-.032.01-.062.022-.092.032l-.006.002-.117.045c-.114.043-.216.083-.322.107-.134.032-.226.026-.295-.008a.503.503 0 0 0-.322-.063.612.612 0 0 0-.285.128c-1.109.86-1.479 2.233-1.572 3.482a2.3 2.3 0 0 0-.037-.056l-.004-.006c-.424-.602-1.168-.989-1.959-.625a1.91 1.91 0 0 0-.207.103c-.037.019-.065.032-.085.04a.541.541 0 0 1-.046-.03c-.043-.03-.122-.085-.214-.117-.33-.136-.632.023-.821.205a.466.466 0 0 0-.045.05 1.774 1.774 0 0 0-.038-.124l-.003-.01c-.266-.683-1.086-.867-1.667-.638-.31.12-.535.329-.708.553a1.206 1.206 0 0 0-.679-.346 1.125 1.125 0 0 0-.981.302.487.487 0 0 0-.152.391c.01.135.076.252.16.336.169.167.481.252.736.026l.008-.007c.007-.007.029-.02.067-.017a.107.107 0 0 1 .062.02c.025.035.034.075.057.18l.01.041c.027.123.077.317.274.45.376.254.784.047.984-.201l.009-.01.007-.013a2.474 2.474 0 0 0 .163-.302c.025-.052.048-.098.073-.145a.718.718 0 0 1 .23-.278l.007-.005a.387.387 0 0 1 .206-.063c.075-.002.124.019.152.046.03.042.05.106.072.227l.007.042c.018.108.044.262.112.394l.004.008.005.008a.805.805 0 0 0 .364.331.723.723 0 0 0 .437.04c.264-.055.502-.233.667-.415a.64.64 0 0 0 .02-.022c.373.208.761.052 1-.044l.012-.005h.002c.161-.067.266-.105.358-.112a.342.342 0 0 1 .248.081l.008.005c.237.164.374.457.459.785l.002.007c.022.077.038.17.057.287l.002.012c.02.116.043.252.081.382.078.264.238.56.62.657.2.052.387.03.542-.075a.76.76 0 0 0 .276-.382c.095-.265.098-.588.098-.756 0-.705.007-1.471.165-2.174.14-.623.395-1.176.855-1.584.327.066.627.002.898-.086.103-.034.216-.076.323-.117a10.7 10.7 0 0 1 .193-.071c.165-.058.32-.104.477-.122.135-.014.267.036.457.127l.059.029c.165.081.379.186.616.21.445.05.88-.076 1.233-.295l.007-.004c.377-.25.53-.574.677-.884l.058-.12.002-.004c.031-.067.057-.075.064-.077.02-.006.063-.01.147.013.081.021.17.058.28.102l.003.002c.101.042.224.092.343.119.567.13 1.045-.11 1.441-.321.147-.065.327-.14.486-.164a.762.762 0 0 1 .046-.005h.083c.066.007.092.035.108.064l.004.008c.098.164.276.239.432.243a.485.485 0 0 0 .453-.256l-.114-.06.114.06a.148.148 0 0 1 .05-.06h.087l-.01-.018c.02 0 .04.001.066.006a.706.706 0 0 1 .342.192c.125.138.212.314.299.526l.06.153c.066.166.138.349.228.515.105.226.259.42.43.585l.007.007.007.006c.086.07.18.13.258.177l.024.015c.089.055.15.097.196.14l.006.006.007.006c.013.01.016.018.016.02a.05.05 0 0 1 .001.023.24.24 0 0 1-.074.125.692.692 0 0 1-.283.15l-.063-.118-.053.154-.146.038-.06.016a.483.483 0 0 0-.344.309.525.525 0 0 0 .026.414c.048.095.09.19.126.288l-.052.149.094-.028c.133.416.163.845.1 1.28l-.174.038.144.14-.013.058c-.08.352.24.722.624.598a23.612 23.612 0 0 0 .057-.012l.143.138.048-.178c.308-.063.577-.098.83-.02.056.025.112.057.183.1l.006.003c.069.041.155.092.25.131l.01.004c.232.084.455.08.653.057l.014-.002.014-.003c.106-.026.203-.063.284-.094l.005-.003a1.845 1.845 0 0 1 .238-.078.83.83 0 0 0 .31.536l.007.006.008.005c.038.027.084.053.118.073l.024.014c.02.011.034.02.044.027-.13.243-.061.5.129.633a.44.44 0 0 0 .321.075.434.434 0 0 0 .3-.205ZM29.39 8.137c0-1.282.019-2.87.995-3.842l-2.181 3.647c.026.092.044.198.062.309.06.357.127.758.52.857.582.15.604-.626.604-.971Zm1.558-3.98c.286-.004.557-.106.834-.21.239-.09.482-.183.742-.213.235-.024.442.078.653.18l-2.229.242Zm-2.139 4.52c0 .002 0 .002 0 0-.004 0-.004-.002 0-.004l.002-.002-.002.005Z" />
      <path fill="#fff" stroke="#fff" stroke-width=".5"
        d="M22.074 6.451c-.025-.262-.245-.391-.415-.428a.724.724 0 0 0-.249-.314.732.732 0 0 0-.565-.128l-.012.002-.012.003a1.037 1.037 0 0 0-.285.142 7.756 7.756 0 0 0-.078.052c-.053.036-.1.067-.148.095l-.009.005-.074.02c-.12-.171-.333-.212-.479-.197-.139.014-.333.095-.406.288-.301-.162-.625-.146-.906-.11h-.003c-.152.022-.214.004-.238-.014l-.153.198.153-.198a.463.463 0 0 1-.088-.107l-.025-.037c-.03-.046-.07-.107-.111-.158-.261-.348-.624-.463-.927-.559a16.573 16.573 0 0 1-.067-.02l-.006-.003a23.453 23.453 0 0 0-5.068-.873H11.9a32.633 32.633 0 0 0-2.526-.043H9.37c-.62.022-1.321.133-1.891.49a1.946 1.946 0 0 0-.76.879l-.027.06a3.782 3.782 0 0 1-.057.127.815.815 0 0 1-.077.135.159.159 0 0 1-.03.034h-.003a.341.341 0 0 1-.049-.024 2.016 2.016 0 0 1-.037-.022l-.004-.002-.042-.025-.008-.005-.008-.004a1.299 1.299 0 0 0-.557-.133h-.01l-.01.001c-.364.03-.66.261-.806.544-.19.365-.208.784-.163 1.17.045.387.157.768.26 1.075l.001.004A5.293 5.293 0 0 0 6.12 10.11a.886.886 0 0 0-.078.358c0 .261.107.477.194.643l.032.059c.08.15.137.258.159.38l.002.01c.034.146.008.268-.054.338a.14.14 0 0 1-.094.053.858.858 0 0 1-.1.007h-.014a2.112 2.112 0 0 0-.134.008 1.03 1.03 0 0 0-.69.285c-.114.101-.225.233-.32.346a5.773 5.773 0 0 1-.104.122v.001c-.315.357-.628.719-.941 1.08h-.001c-.313.362-.626.723-.939 1.078l-.002.003c-.09.105-.19.217-.296.334-.178.197-.367.407-.53.616-.27.343-.514.733-.615 1.184-.167.693-.016 1.376.221 2.002-.039 0-.08.003-.124.009l-.01.001-.011.003c-.288.065-.46.27-.568.46a2.431 2.431 0 0 0-.134.283l-.038.095c-.02.053-.04.1-.06.145-.099.223-.204.44-.31.663v.001c-.106.22-.213.442-.315.67a4.961 4.961 0 0 1-.131.247 4.64 4.64 0 0 0-.155.303c-.095.21-.183.472-.136.742.049.286.255.503.436.658.095.08.195.155.286.221.012.01.025.018.037.027.078.057.145.105.202.152l.002.002c.189.15.377.305.568.461v.001a78.364 78.364 0 0 0 .608.494c.251.202.615.496 1.069.522.409.026.817-.133 1.054-.503l.004-.007.003-.006a.48.48 0 0 0 .034-.409.533.533 0 0 0-.233-.27.526.526 0 0 0-.352-.066.472.472 0 0 0-.333.242l-.004.007a.106.106 0 0 1-.017.026c-.003.003-.004.003-.005.003 0 0-.012.006-.047.001-.08-.01-.199-.065-.348-.164a4.308 4.308 0 0 1-.418-.326c-.047-.04-.093-.08-.137-.12-.069-.06-.13-.115-.171-.147l-.425-.345c-.14-.113-.28-.226-.424-.345H1.21a2.71 2.71 0 0 0-.23-.164.505.505 0 0 1-.124-.108l-.204.142.204-.142c-.002-.002-.012-.01.01-.072.013-.034.03-.07.055-.119l.006-.012c.02-.038.044-.087.064-.135.203-.405.397-.812.593-1.223l.32-.667c.017-.032.033-.072.045-.102l.001-.003v-.002l.023-.055.032.018a.61.61 0 0 0 .037.02l.01.005.009.003c.093.037.19.067.293.081l.178.371.064-.37a.963.963 0 0 0 .29-.09c.306-.148.308-.5.205-.703-.212-.44-.41-.897-.487-1.35-.076-.446-.033-.874.226-1.272.216-.33.494-.632.784-.946l.153-.166.004-.004.002-.002c.356-.408.715-.82 1.053-1.231.357-.409.717-.82 1.054-1.234l.004-.005a2.38 2.38 0 0 0 .045-.06l.014-.019a.988.988 0 0 1 .077-.09l.005-.002.02-.008s.018-.005.084 0l.06.006.042.004c.037.003.082.007.127.007h.015l.015-.002c.223-.026.423-.108.595-.246.42-.325.548-.808.497-1.279a1.848 1.848 0 0 0-.253-.743l-.023-.04-.003-.005a2.958 2.958 0 0 1-.063-.12.53.53 0 0 0 .237-.317.512.512 0 0 0-.127-.505 4.963 4.963 0 0 1-.145-.146l.041-.14-.141.032a3.881 3.881 0 0 1-.747-1.188l-.002-.004c-.098-.243-.199-.52-.262-.798-.063-.28-.084-.542-.038-.762l.001-.005a.68.68 0 0 1 .02-.082.395.395 0 0 1 .04.017c.227.1.561.247.928.1.325-.128.501-.37.626-.592.036-.063.074-.137.109-.204l.057-.11c.052-.097.102-.178.158-.244l.003-.004c.118-.146.295-.255.517-.335.22-.08.466-.125.705-.156a15.206 15.206 0 0 1 1.955-.042h.001c1.483.042 2.967.235 4.43.555h.002c.404.087.799.172 1.17.277h.002a2.686 2.686 0 0 0 .154.037l.106.025c.081.02.132.039.163.059.062.04.093.086.155.179l.066.098.006.008c.204.27.485.5.892.53a1.535 1.535 0 0 0 .376-.008c.07-.007.127-.012.185-.012h-.003s.01 0 .03.004a.486.486 0 0 0 .164.364.535.535 0 0 0 .55.099l.056.054.063-.11c.175-.096.315-.221.424-.366.07.013.142.02.216.02.206 0 .39-.097.505-.163a.79.79 0 0 0 .104-.074l.008.014.014.018a.859.859 0 0 0 .376.274l.01.004.01.003c.175.05.359.03.507-.07.15-.099.241-.262.259-.449l.002-.023-.002-.024Z" />
      <mask id="b" width="4" height="4" x="1.538" y="22.171" fill="#000" maskUnits="userSpaceOnUse">
        <path fill="#fff" d="M1.538 22.171h4v4h-4z" />
        <path
          d="M3.672 24.43c0-.022-.022-.022-.044-.022.022.022.067.022.09.022h.022c-.045 0-.09-.022-.112-.022.022.022.044.043.067.043h.134c.022 0 .022 0 .045-.021-.023 0-.023 0-.045.021h.022c.023 0 .023 0 .045-.021.023 0 .023-.022.045-.043.022-.022.045-.065.022-.087 0-.021 0-.043-.022-.064 0-.022-.022-.022-.045-.044-.022-.021-.022-.021-.045-.021h-.067c-.044 0-.067 0-.09.021 0 0-.022 0-.022.022-.022 0-.022.022-.044.022a.162.162 0 0 0-.045.107c.022-.021.022-.064.045-.086l-.045.043c-.023.022-.023.065-.023.087v-.065c-.022.021-.022.043-.022.065 0 .021 0 .064.022.086h.045c.023-.022.045-.022.067-.043Z" />
      </mask>
      <path fill="#fff"
        d="M3.672 24.43c0-.022-.022-.022-.044-.022.022.022.067.022.09.022h.022c-.045 0-.09-.022-.112-.022.022.022.044.043.067.043h.134c.022 0 .022 0 .045-.021-.023 0-.023 0-.045.021h.022c.023 0 .023 0 .045-.021.023 0 .023-.022.045-.043.022-.022.045-.065.022-.087 0-.021 0-.043-.022-.064 0-.022-.022-.022-.045-.044-.022-.021-.022-.021-.045-.021h-.067c-.044 0-.067 0-.09.021 0 0-.022 0-.022.022-.022 0-.022.022-.044.022a.162.162 0 0 0-.045.107c.022-.021.022-.064.045-.086l-.045.043c-.023.022-.023.065-.023.087v-.065c-.022.021-.022.043-.022.065 0 .021 0 .064.022.086h.045c.023-.022.045-.022.067-.043Z" />
      <path fill="#fff"
        d="M3.672 24.68a.279.279 0 0 0 .18-.067l.016-.014-.007.006a.217.217 0 0 1-.144.053v-.5a.275.275 0 0 0-.196.081l.007-.006a.218.218 0 0 1 .087-.045.219.219 0 0 1 .057-.008v.5Zm0-.25.347.36.153-.148v-.212h-.5Zm-.044-.022v-.5h-1.24l.893.86.347-.36Zm.246.022.347.36.892-.86h-1.24v.5Zm.022 0v-.5h-.202l-.145.14.347.36Zm.067-.13h-.5v.213l.153.147.347-.36Zm-.022-.064h-.5v.212l.153.148.347-.36Zm-.246-.044v.5h.202l.145-.14-.347-.36Zm-.023.022v.5h.5v-.5h-.5Zm-.044.022v-.5h-.202l-.145.14.347.36Zm-.045.107h-.5v1.177l.847-.817-.347-.36Zm-.023-.021h.5v-1.177l-.847.817.347.36Zm0 .151-.347.36.146.14h.201v-.5Zm.045 0v.5h.202l.145-.14-.347-.36Zm.567-.043a.519.519 0 0 0-.496-.52l-.048-.002v1h-.016a.48.48 0 0 1-.44-.478h1Zm-.891.338a.58.58 0 0 0 .312.153c.061.01.116.009.124.009v-1c-.014 0 .007-.001.035.003a.44.44 0 0 1 .223.115l-.694.72Zm.436.162h.023v-1h-.023v1Zm.023-1c.028 0 .048.003.058.005l.01.002-.012-.003-.026-.007a.622.622 0 0 0-.142-.019v1a.446.446 0 0 1-.075-.006l-.027-.005c-.003-.001-.004-.002 0 0l.016.004a.836.836 0 0 0 .198.029v-1Zm-.46.838c.005.005.043.042.088.075.041.03.158.108.327.108v-1c.146 0 .24.068.26.082.022.016.037.032.02.015l-.694.72Zm.415.183H3.74v-1H3.694v1Zm.045 0h.022v-1H3.74v1Zm.022 0H3.807v-1H3.761v1Zm.045 0h.022v-1h-.022v1Zm.022 0h.017a.547.547 0 0 0 .223-.052.54.54 0 0 0 .12-.079l.032-.03-.694-.72.006-.005a.46.46 0 0 1 .261-.112l.035-.002v1Zm.045-1.021h-.017a.524.524 0 0 0-.342.131l-.033.03.694.72-.006.006a.463.463 0 0 1-.261.11c-.026.003-.05.003-.035.003v-1Zm-.045 1.021h.022v-1H3.83v1Zm.022 0h.018a.547.547 0 0 0 .222-.052.54.54 0 0 0 .12-.079l.032-.03-.694-.72.006-.005a.46.46 0 0 1 .262-.112l.034-.002v1Zm.045-.021a.523.523 0 0 0 .434-.23c.043-.062-.005.011-.042.047l-.694-.72a.596.596 0 0 0-.092.113l.005-.008c.008-.011.048-.07.123-.12a.477.477 0 0 1 .266-.082v1Zm.392-.183a.617.617 0 0 0 .154-.24.539.539 0 0 0-.132-.567l-.694.72a.462.462 0 0 1-.12-.48.384.384 0 0 1 .098-.153l.694.72Zm.175-.447s.003-.075-.018-.158a.567.567 0 0 0-.157-.266l-.694.72a.433.433 0 0 1-.117-.203c-.016-.06-.014-.113-.014-.093h1Zm-.022-.064a.52.52 0 0 0-.1-.307c-.058-.08-.125-.124-.144-.136-.063-.04.01.005.046.04l-.694.72c.036.034.07.058.093.073l.022.013-.007-.004c-.01-.007-.07-.045-.124-.118a.48.48 0 0 1-.092-.281h1Zm-.198-.404-.032-.03a.538.538 0 0 0-.342-.131H3.85v1l-.034-.002a.474.474 0 0 1-.262-.111l-.006-.006.694-.72Zm-.392-.161H3.784v1H3.852v-1Zm-.067 0c-.003 0-.245-.023-.436.162l.694.72a.428.428 0 0 1-.216.112c-.028.005-.048.006-.052.006h.01v-1Zm-.09.521v-.5h-.016a.483.483 0 0 0-.066.007.529.529 0 0 0-.347.218.521.521 0 0 0-.093.297h1a.48.48 0 0 1-.444.477l-.017.001h-.015l-.001-.5Zm-.022-.478a.526.526 0 0 0-.361.144l-.008.007.004-.003.015-.014a.464.464 0 0 1 .306-.112v1a.526.526 0 0 0 .361-.144l.008-.007-.003.003-.016.014a.464.464 0 0 1-.306.112v-1Zm-.391.162a.66.66 0 0 0-.198.467h1a.346.346 0 0 1-.108.253l-.694-.72Zm.649.827a.565.565 0 0 0 .14-.215l.008-.024c.002-.005 0-.003 0 0a.437.437 0 0 1-.103.153l-.694-.72a.563.563 0 0 0-.148.24c-.002.005-.001.003 0 0a.435.435 0 0 1 .103-.153l.694.72Zm-.65-.806-.022.022-.022.021.694.72.022-.021.023-.022-.694-.72Zm-.044.043a.576.576 0 0 0-.165.318c-.011.064-.01.12-.01.129h1c0-.014 0 .01-.005.042a.441.441 0 0 1-.126.232l-.694-.72Zm.824.447V24.321h-1V24.387h1Zm-.847-.425a.567.567 0 0 0-.156.267c-.021.082-.019.157-.019.158h1c0-.02.003.032-.013.093a.433.433 0 0 1-.117.202l-.695-.72Zm-.175.425c0 .008 0 .064.01.128.01.054.04.197.165.318l.695-.72a.442.442 0 0 1 .126.232c.005.031.004.056.004.042h-1Zm.522.586H3.606v-1H3.56v1Zm.392-.14c-.052.05-.108.074-.096.069.01-.005.089-.04.163-.112l-.694-.72c.053-.05.108-.075.097-.069-.011.005-.089.04-.164.112l.694.72Z"
        mask="url(#b)" />
      <path fill="#fff" stroke="#fff" stroke-width=".5"
        d="m4.071 24.837.005.004.023.018c.12.098.308.249.531.307a.92.92 0 0 0 .712-.054 2.706 2.706 0 0 0 .113-.051.649.649 0 0 1 .074-.03.098.098 0 0 1 .073.001l.013.004c.11.033.198.076.302.127.046.023.095.047.15.072.168.076.366.148.613.136.072-.002.14-.018.178-.027l.007-.002a.393.393 0 0 1 .076-.014c.024 0 .038.004.065.019a.926.926 0 0 1 .046.027l.024.016c.03.019.069.042.114.064l.007.003.007.003c.194.08.395.109.6.081.087-.012.175-.034.247-.052l.015-.004c.081-.02.144-.034.2-.04a.249.249 0 0 1 .107.006c.017.005.04.017.068.056l.001.002c.058.076.102.15.153.236l.063.105c.077.125.171.264.312.387.352.31.834.33 1.213.176.22-.073.414-.207.556-.306a5.456 5.456 0 0 1 .084-.057c.134-.088.339-.223.428-.48a.412.412 0 0 0-.085-.418.476.476 0 0 0-.34-.152.74.74 0 0 0-.426.1c-.106.059-.203.138-.282.202l-.016.013c-.186.15-.288.215-.408.204H9.69c-.046-.003-.093-.027-.159-.122a1.638 1.638 0 0 1-.097-.167l-.015-.029c-.028-.053-.06-.115-.094-.17l-.003-.005c-.176-.267-.432-.527-.846-.585a1.188 1.188 0 0 0-.313.006 4.048 4.048 0 0 0-.133.02l-.011.001-.104.017-.013.002-.076.015-.071.014a.482.482 0 0 1-.083.01c-.025 0-.058-.004-.125-.047l-.006-.004a1.18 1.18 0 0 0-.319-.141 1.054 1.054 0 0 0-.371-.023h-.003c-.061.006-.11.013-.152.019-.12.016-.177.024-.273-.005a2.62 2.62 0 0 1-.198-.098l-.021-.01c-.067-.036-.141-.075-.218-.11a1.055 1.055 0 0 0-.628-.096.905.905 0 0 0-.306.117l-.014.008c-.069.038-.107.06-.144.072-.034.004-.08-.005-.155-.04a1.924 1.924 0 0 1-.13-.072l-.006-.004c-.044-.026-.097-.056-.149-.081a1.403 1.403 0 0 0-.536-.154.632.632 0 0 0-.593.316l-.004.006-.003.007a.321.321 0 0 0 .29.473c.178 0 .324.06.464.178Z" />
      <path fill="#fff" stroke="#fff" stroke-width=".5"
        d="m10.893 25.774.018-.005.016-.006c.37-.147.681-.246 1.075-.286h.002a10.02 10.02 0 0 1 .55-.045c.186-.014.38-.03.583-.065.662-.11 1.423-.364 1.771-1.063l.005-.01c.02-.043.036-.086.051-.124v-.002l.044-.106a.386.386 0 0 1 .074-.121l.007-.007.006-.007h.001c.005-.006.013-.016.068-.019a1.25 1.25 0 0 1 .119 0c.042 0 .097 0 .155-.005.197-.003.396-.058.568-.17v.001l.007-.005a1.059 1.059 0 0 0 .246-.255.432.432 0 0 1 .113-.12.526.526 0 0 1 .176-.05 2.31 2.31 0 0 1 .138-.015l.13-.013c.24-.024.455-.07.687-.137.093-.023.18-.048.265-.07.332-.092.61-.168.922-.138h.007c.436.029.827.201 1.222.433.169.1.334.207.503.317l.088.057c.198.129.403.26.615.373l.01.005c.205.099.415.023.526-.124a.404.404 0 0 0-.037-.535c-.587-.632-1.432-1.177-2.312-1.384a3.114 3.114 0 0 0-1.31-.07l-.003.001c-.205.036-.402.09-.585.14-.05.014-.097.028-.144.04-.228.06-.442.109-.67.119h-.003a1.489 1.489 0 0 0-.619.148c-.18.092-.327.225-.471.387-.055.059-.086.067-.116.073a.743.743 0 0 1-.103.009h-.025a3.07 3.07 0 0 0-.142.008.966.966 0 0 0-.612.203c-.195.147-.3.346-.378.502l-.025.05c-.073.146-.125.251-.207.337l-.007.008c-.187.213-.47.309-.827.395-.18.034-.38.052-.6.07l-.044.004c-.207.017-.429.035-.646.07-.46.072-.947.225-1.285.648a.316.316 0 0 0 .048.48.448.448 0 0 0 .355.079ZM60.49 20.529l-.01.03-.002.031-.068.865v.019c0 .052-.005.112-.01.185l-.001.004a2.79 2.79 0 0 0-.012.22c0 .02-.002.044-.005.08v.003a1.435 1.435 0 0 0-.006.12c0 .092.015.227.114.346l.008.01.01.01c.07.067.155.086.219.086s.149-.02.218-.086a.515.515 0 0 0 .143-.338c.005-.062.003-.14.001-.19V20.634a.277.277 0 0 0-.074-.233.296.296 0 0 0-.216-.09.327.327 0 0 0-.309.217Z" />
      <path fill="#fff" stroke="#fff" stroke-width=".5"
        d="M60.769 20.658a7.39 7.39 0 0 0-.005.046c-.02.193-.04.386-.04.597 0 .039-.005.08-.01.132l-.002.011a1.474 1.474 0 0 0-.013.211v.019a1.073 1.073 0 0 0 0 .102c.004.079.023.184.1.283l.01.014.013.012a.361.361 0 0 0 .25.103c.088 0 .2-.039.267-.144a.497.497 0 0 0 .088-.268 1.07 1.07 0 0 0 0-.102v-.019c-.002-.02-.002-.036-.002-.052V21.3c0-.115-.006-.223-.012-.324v-.003c-.005-.103-.01-.199-.01-.299a.312.312 0 0 0-.318-.315.31.31 0 0 0-.317.297ZM41.429 5.662c-.023.277-.046.565-.046.856 0 .053-.004.113-.01.185v.005a2.789 2.789 0 0 0-.012.22V7.144l-.002.027v.003a.717.717 0 0 0-.004.065c0 .05.009.134.065.212a.27.27 0 0 0 .236.132.271.271 0 0 0 .232-.125.375.375 0 0 0 .073-.152c.012-.053.012-.107.012-.134V6.95c0-.053.005-.113.01-.186V6.76c.006-.064.012-.139.012-.21.023-.288.023-.573.023-.869v-.065l-.028-.055a.31.31 0 0 0-.275-.167.29.29 0 0 0-.184.064.28.28 0 0 0-.102.204ZM5.482 8.849v.008l.001.01.034.495c.01.167.022.335.033.497v.007l.002.008c.01.077.015.151.02.233v.003c.006.08.012.166.024.26l.001.005a1.149 1.149 0 0 1 .01.106c.002.032.004.071.009.11.01.083.03.187.093.29a.27.27 0 0 0 .247.155c.041 0 .097-.01.15-.044.051-.032.101-.09.117-.169.054-.199.026-.39.005-.527l-.002-.014a3.877 3.877 0 0 1-.02-.231v-.003c-.006-.077-.012-.162-.023-.253-.012-.163-.029-.326-.045-.484v-.002c-.017-.163-.033-.32-.044-.477l-.003-.033-.01-.032a.32.32 0 0 0-.301-.217.298.298 0 0 0-.298.299Z" />
      <path fill="#fff" stroke="#fff" stroke-width=".5"
        d="m5.89 9.316-.028.054v.066c0 .274 0 .539.023.825 0 .265.023.559.094.837.015.082.066.141.117.174a.279.279 0 0 0 .301 0c.055-.035.11-.1.12-.19.036-.218.031-.457.027-.659a8.206 8.206 0 0 1-.003-.172v-.02c-.007-.079-.011-.161-.016-.247-.01-.189-.022-.39-.054-.592l-.006-.04-.019-.036a.312.312 0 0 0-.278-.167.312.312 0 0 0-.278.167Z" />
      <path fill="#fff"
        d="m44.4 13.803-4.47 14.33h-1.74l-3.63-10.93c-.033-.106-.066-.22-.1-.34-.026-.12-.056-.246-.09-.38a14.667 14.667 0 0 1-.2.72l-3.65 10.93h-1.74l-4.47-14.33h1.61c.174 0 .317.044.43.13a.57.57 0 0 1 .23.33l2.96 9.96c.047.18.09.374.13.58.047.207.09.427.13.66.047-.233.094-.453.14-.66.054-.213.11-.406.17-.58l3.37-9.96a.714.714 0 0 1 .23-.31.65.65 0 0 1 .43-.15h.56c.174 0 .314.044.42.13a.8.8 0 0 1 .24.33l3.36 9.96c.06.174.114.36.16.56.054.2.104.41.15.63.034-.22.07-.43.11-.63.04-.2.084-.386.13-.56l2.97-9.96a.635.635 0 0 1 .22-.32.68.68 0 0 1 .43-.14h1.51Z" />
    </g>
    <defs>
      <clipPath id="a">
        <path fill="#fff" d="M0 0h64v46H0z" />
      </clipPath>
    </defs>
  </symbol>
  <symbol id="open-menu" viewBox="0 0 40 40">
    <path stroke="#fff" stroke-linecap="round" stroke-linejoin="round" stroke-width="2"
      d="M8.333 28.333h13.333M8.333 20h23.333m-13.333-8.333h13.333" />
  </symbol>
  <symbol id="close-menu" viewBox="0 0 40 40">
    <path stroke="#fff" stroke-linecap="round" stroke-linejoin="round" stroke-width="2"
      d="M30 10 10 30M10 10l20 20" />
  </symbol>
  <symbol id="instagram" viewBox="0 0 24 24">
    <path fill="#fff"
      d="M12 7.5a4.5 4.5 0 1 0 0 9 4.5 4.5 0 0 0 0-9Zm0 7.5a3 3 0 1 1 0-5.999A3 3 0 0 1 12 15Zm4.5-12.75h-9A5.256 5.256 0 0 0 2.25 7.5v9a5.256 5.256 0 0 0 5.25 5.25h9a5.256 5.256 0 0 0 5.25-5.25v-9a5.256 5.256 0 0 0-5.25-5.25Zm3.75 14.25a3.75 3.75 0 0 1-3.75 3.75h-9a3.75 3.75 0 0 1-3.75-3.75v-9A3.75 3.75 0 0 1 7.5 3.75h9a3.75 3.75 0 0 1 3.75 3.75v9ZM18 7.125a1.125 1.125 0 1 1-2.25 0 1.125 1.125 0 0 1 2.25 0Z" />
  </symbol>
  <symbol id="facebook" viewBox="0 0 24 24">
    <path fill="#fff"
      d="M12 2.25A9.75 9.75 0 1 0 21.75 12 9.76 9.76 0 0 0 12 2.25Zm.75 17.965V14.25H15a.75.75 0 1 0 0-1.5h-2.25V10.5a1.5 1.5 0 0 1 1.5-1.5h1.5a.75.75 0 1 0 0-1.5h-1.5a3 3 0 0 0-3 3v2.25H9a.75.75 0 1 0 0 1.5h2.25v5.965a8.25 8.25 0 1 1 1.5 0Z" />
  </symbol>
  <symbol id="telegram" viewBox="0 0 24 24">
    <path fill="#fff"
      d="M22.207 2.455a.844.844 0 0 0-.859-.147L2.35 9.743a1.333 1.333 0 0 0 .228 2.551l4.923.967v5.489a1.492 1.492 0 0 0 .937 1.39 1.492 1.492 0 0 0 1.642-.35l2.373-2.461 3.766 3.296a1.489 1.489 0 0 0 1.454.3 1.486 1.486 0 0 0 1-1.09l3.806-16.554a.843.843 0 0 0-.27-.826ZM16.475 5.83l-8.399 6.015-4.65-.912 13.05-5.103ZM9 18.75v-4.451l2.324 2.038L9 18.75Zm8.206.75-7.752-6.797 11.157-7.996L17.206 19.5Z" />
  </symbol>
  <symbol id="bus" viewBox="0 0 24 24">
    <mask id="a" width="24" height="24" x="0" y="0" maskUnits="userSpaceOnUse"
      style="mask-type:alpha">
      <path fill="#D9D9D9" d="M0 0h24v24H0z" />
    </mask>
    <g mask="url(#a)">
      <path fill="#fff"
        d="M7.038 20a.484.484 0 0 1-.356-.144.484.484 0 0 1-.144-.356v-1.896c-.325-.141-.663-.441-1.013-.901A2.549 2.549 0 0 1 5 15.115V6c0-1.037.561-1.797 1.684-2.278C7.807 3.24 9.58 3 12 3c2.508 0 4.302.231 5.382.694C18.46 4.156 19 4.925 19 6v9.115c0 .6-.175 1.128-.525 1.588-.35.46-.688.76-1.014.9V19.5c0 .142-.047.26-.143.356a.484.484 0 0 1-.357.144h-.23a.484.484 0 0 1-.357-.144.484.484 0 0 1-.143-.356V18H7.769v1.5c0 .142-.048.26-.144.356A.484.484 0 0 1 7.27 20h-.23ZM6 11h12V6.538H6V11Zm2.505 4.615c.31 0 .574-.108.788-.326.215-.218.322-.482.322-.793 0-.312-.108-.575-.326-.79a1.088 1.088 0 0 0-.794-.321c-.31 0-.574.108-.788.326a1.087 1.087 0 0 0-.322.793c0 .312.109.575.326.79.218.214.482.321.794.321Zm7 0c.31 0 .573-.108.788-.326.215-.218.322-.482.322-.793 0-.312-.108-.575-.326-.79a1.088 1.088 0 0 0-.794-.321c-.31 0-.573.108-.788.326a1.088 1.088 0 0 0-.322.793c0 .312.108.575.326.79.218.214.482.321.793.321ZM6.104 5.538h11.815c-.173-.514-.707-.899-1.603-1.154-.895-.256-2.33-.384-4.304-.384-1.963 0-3.392.13-4.288.39-.895.259-1.436.642-1.62 1.148ZM8 17h8c.55 0 1.02-.196 1.413-.587.391-.392.587-.863.587-1.413v-3H6v3c0 .55.196 1.02.588 1.413.391.391.862.587 1.412.587Z" />
    </g>
  </symbol>
  <symbol id="card" viewBox="0 0 24 24">
    <path fill="#fff"
      d="M21 3.938H3A2.065 2.065 0 0 0 .937 6v12A2.065 2.065 0 0 0 3 20.063h18A2.065 2.065 0 0 0 23.063 18V6A2.065 2.065 0 0 0 21 3.937ZM3 5.062h18c.517.001.937.42.938.938v.938H2.063V6c0-.518.42-.937.937-.938Zm18 13.875H3A.939.939 0 0 1 2.062 18V8.062h19.875V18c0 .517-.42.937-.937.938ZM7.234 13.221a1.976 1.976 0 1 0 0-3.953 1.976 1.976 0 0 0 0 3.953Zm0-2.828a.851.851 0 1 1 0 1.703.851.851 0 0 1 0-1.703Zm0 3.715a3.41 3.41 0 0 0-3.308 2.64l-.004.023a.563.563 0 0 0 1.098.244v-.003a2.267 2.267 0 0 1 4.424-.015l.003.015a.563.563 0 0 0 1.098-.245v.004a3.415 3.415 0 0 0-3.31-2.664l-.001.001ZM19.5 9.938h-6a.563.563 0 0 0 0 1.124h6a.563.563 0 0 0 0-1.124Zm0 3h-6a.563.563 0 0 0 0 1.124h6a.563.563 0 0 0 0-1.124Zm0 3h-6a.563.563 0 0 0 0 1.124h6a.563.563 0 0 0 0-1.125Z" />
  </symbol>
  <symbol id="tour-guide" viewBox="0 0 24 24">
    <mask id="a" width="24" height="24" x="0" y="0" maskUnits="userSpaceOnUse"
      style="mask-type:alpha">
      <path fill="#D9D9D9" d="M0 0h24v24H0z" />
    </mask>
    <g mask="url(#a)">
      <path fill="#fff"
        d="M9 16.25c-.35 0-.646-.12-.887-.363A1.207 1.207 0 0 1 7.75 15c0-.35.121-.646.363-.887.241-.242.537-.363.887-.363s.646.12.888.363c.241.241.362.537.362.887s-.12.646-.362.887A1.207 1.207 0 0 1 9 16.25Zm6 0c-.35 0-.646-.12-.887-.363A1.207 1.207 0 0 1 13.75 15c0-.35.121-.646.363-.887.241-.242.537-.363.887-.363s.646.12.888.363c.241.241.362.537.362.887s-.12.646-.362.887a1.207 1.207 0 0 1-.888.363ZM12 22c2.234 0 4.125-.775 5.675-2.325C19.225 18.125 20 16.233 20 14c0-.4-.025-.787-.075-1.162a4.838 4.838 0 0 0-.275-1.088c-.35.083-.7.146-1.05.188a9.3 9.3 0 0 1-1.1.062 9.787 9.787 0 0 1-4.3-.975A9.983 9.983 0 0 1 9.75 8.3a9.86 9.86 0 0 1-2.287 3.387A9.768 9.768 0 0 1 4 13.85V14c0 2.233.775 4.125 2.325 5.675C7.875 21.225 9.767 22 12 22ZM9.708 6.317c.815 1.628 1.967 2.816 3.456 3.563 1.488.747 2.934 1.12 4.336 1.12.31 0 .616-.016.916-.047.3-.031.598-.083.896-.155-.636-1.487-1.621-2.659-2.956-3.514A7.914 7.914 0 0 0 12 6c-.438 0-.84.025-1.204.076-.364.05-.726.131-1.088.241Zm-5.571 6.389c1.03-.458 2.072-1.208 3.129-2.25 1.056-1.043 1.672-2.353 1.848-3.931a7.676 7.676 0 0 0-3.321 2.404 7.922 7.922 0 0 0-1.656 3.777Zm-.712-1.246a8.577 8.577 0 0 1 1.917-3.523 8.406 8.406 0 0 1 3.31-2.262 4.177 4.177 0 0 0-1.34-1.1 3.733 3.733 0 0 0-1.767-.421c-1.11 0-2.05.384-2.817 1.152-.767.769-1.15 1.71-1.15 2.823 0 .7.168 1.34.507 1.92a4.15 4.15 0 0 0 1.34 1.41ZM12.004 23a8.769 8.769 0 0 1-3.51-.709 9.094 9.094 0 0 1-2.86-1.924A9.089 9.089 0 0 1 3.71 17.51 8.76 8.76 0 0 1 3 14c0-.263.011-.523.033-.782.022-.258.06-.508.117-.749a4.845 4.845 0 0 1-1.872-1.785 4.829 4.829 0 0 1-.7-2.555c0-1.383.482-2.558 1.45-3.525.966-.967 2.14-1.45 3.524-1.45.845 0 1.622.196 2.332.59.71.392 1.29.919 1.74 1.58a8.504 8.504 0 0 1 1.17-.243C11.193 5.027 11.594 5 12 5c1.245 0 2.415.236 3.51.708a9.09 9.09 0 0 1 2.858 1.924 9.086 9.086 0 0 1 1.924 2.856A8.758 8.758 0 0 1 21 13.997a8.77 8.77 0 0 1-.708 3.51 9.094 9.094 0 0 1-1.923 2.859 9.083 9.083 0 0 1-2.857 1.925 8.753 8.753 0 0 1-3.508.709Z" />
    </g>
  </symbol>
  <symbol id="ticket-blank" viewBox="0 0 24 24">
    <path fill="#fff"
      d="M22.5 10.313c.31 0 .563-.253.563-.563V6a.563.563 0 0 0-.563-.563h-21A.563.563 0 0 0 .937 6v3.75c0 .31.252.563.563.563a1.687 1.687 0 1 1 0 3.374.563.563 0 0 0-.563.563V18c0 .31.252.563.563.563h21c.31 0 .563-.252.563-.563v-3.75a.563.563 0 0 0-.563-.563 1.687 1.687 0 1 1 0-3.374Zm-.563 4.442v2.682H2.063v-2.682A2.818 2.818 0 0 0 4.313 12a2.814 2.814 0 0 0-2.23-2.752l-.019-.003V6.563h19.875v2.682A2.818 2.818 0 0 0 19.688 12c0 1.354.957 2.485 2.232 2.752l.017.003Z" />
  </symbol>
  <symbol id="arrow-prew" viewBox="0 0 146 24">
    <path fill="#currentColor"
      d="M.94 10.94a1.5 1.5 0 0 0 0 2.12l9.545 9.547a1.5 1.5 0 1 0 2.122-2.122L4.12 12l8.486-8.485a1.5 1.5 0 1 0-2.122-2.122L.94 10.94ZM146 10.5H2v3h144v-3Z" />
  </symbol>
  <symbol id="arrow-next" viewBox="0 0 146 24">
    <path fill="#currentColor"
      d="M145.061 13.06a1.502 1.502 0 0 0 0-2.12l-9.546-9.547a1.5 1.5 0 0 0-2.122 2.122L141.879 12l-8.486 8.485a1.501 1.501 0 0 0 2.122 2.122l9.546-9.546ZM0 13.5h144v-3H0v3Z" />
  </symbol>
  <symbol id="star" viewBox="0 0 24 22">
    <path fill="#AE990B"
      d="m12 0 3.174 7.631 8.239.66-6.277 5.378 1.917 8.04L12 17.4l-7.053 4.308 1.917-8.04L.587 8.293l8.239-.66L12 0Z" />
  </symbol>
</svg>